<?xml version="1.0" encoding="UTF-8"?>
<svg width="112px" height="112px" viewBox="0 0 112 112" version="1.1" xmlns="http://www.w3.org/2000/svg" xmlns:xlink="http://www.w3.org/1999/xlink">
    <!-- Generator: Sketch 52.3 (67297) - http://www.bohemiancoding.com/sketch -->
    <title>Group 34</title>
    <desc>Created with Sketch.</desc>
    <g id="Point-de-Vue" stroke="none" stroke-width="1" fill="none" fill-rule="evenodd">
        <g id="Point-de-vue" transform="translate(-225.000000, -397.000000)">
            <g id="Group-34" transform="translate(225.000000, 397.000000)">
                <polygon id="Rectangle-244-Copy-51" fill="#BB7A10" points="0 8 52.6983622 0 112 8 112 112 0 112"></polygon>
                <g id="valve" transform="translate(17.000000, 30.000000)" fill-rule="nonzero">
                    <path d="M60,30.8135549 L60,29.5810127 C60,27.5388444 58.3210938,25.8833861 56.25,25.8833861 C54.183125,25.8935546 52.5103125,27.5430042 52.5,29.5810127 L52.5,30.8135549 L48.09875,30.8135549 C47.4126563,29.9837459 46.6234375,29.2420636 45.75,28.6060719 C45.5,28.4211905 45.25,28.2486346 45,28.0896367 L45,22.1857595 L47.5,22.1857595 C49.566875,22.1755911 51.2396875,20.5261415 51.25,18.488133 C51.25,16.4459646 49.5710938,14.7905064 47.5,14.7905064 L42.5,14.7905064 L42.5,12.325422 L45,12.325422 C45.6903125,12.325422 46.25,11.7735512 46.25,11.0928798 L46.25,7.39525318 L53.75,7.39525318 C55.8210938,7.39525318 57.5,5.73979494 57.5,3.69762659 C57.5,1.65545824 55.8210938,0 53.75,0 L21.25,0 C19.1789063,0 17.5,1.65545824 17.5,3.69762659 C17.5,5.73979494 19.1789063,7.39525318 21.25,7.39525318 L28.75,7.39525318 L28.75,11.0928798 C28.75,11.7735512 29.3096875,12.325422 30,12.325422 L32.5,12.325422 L32.5,14.7905064 L27.5,14.7905064 C25.433125,14.8006748 23.7603125,16.4501244 23.75,18.488133 C23.75,20.5303013 25.4289063,22.1857595 27.5,22.1857595 L30,22.1857595 L30,28.0896367 C29.75,28.2486346 29.5,28.4187254 29.25875,28.6011417 C28.3815625,29.2377497 27.5895313,29.9811267 26.90125,30.8135549 L22.5,30.8135549 L22.5,29.5810127 C22.4896875,27.5430042 20.816875,25.8935546 18.75,25.8833861 C16.6789063,25.8833861 15,27.5388444 15,29.5810127 L15,30.8135549 L0,30.8135549 L0,48.0691457 L15,48.0691457 L15,49.3016879 C15,51.3438562 16.6789063,52.9993145 18.75,52.9993145 C20.8210938,52.9993145 22.5,51.3438562 22.5,49.3016879 L22.5,48.0691457 L26.90375,48.0691457 C31.7235938,53.8396001 40.375,54.6646331 46.2271875,49.9121044 C46.9089063,49.3585389 47.5348438,48.7413434 48.09625,48.0691457 L52.5,48.0691457 L52.5,49.3016879 C52.5,51.3438562 54.1789063,52.9993145 56.25,52.9993145 C58.3210938,52.9993145 60,51.3438562 60,49.3016879 L60,48.0691457 L75,48.0691457 L75,30.8135549 L60,30.8135549 Z M15,45.6040613 L2.5,45.6040613 L2.5,33.2786393 L15,33.2786393 L15,45.6040613 Z M20,49.3016879 C20,49.9823593 19.4403125,50.5342301 18.75,50.5342301 C18.0596875,50.5342301 17.5,49.9823593 17.5,49.3016879 L17.5,29.5810127 C17.5,28.9003413 18.0596875,28.3484705 18.75,28.3484705 C19.086875,28.3473921 19.4090625,28.4838961 19.64,28.7256284 C19.8732812,28.9504133 20.0032812,29.2594733 20,29.5810127 L20,49.3016879 Z M21.25,4.93016879 C20.5596875,4.93016879 20,4.37829802 20,3.69762659 C20,3.01695516 20.5596875,2.46508439 21.25,2.46508439 L53.75,2.46508439 C54.4403125,2.46508439 55,3.01695516 55,3.69762659 C55,4.37829802 54.4403125,4.93016879 53.75,4.93016879 L21.25,4.93016879 Z M31.25,9.86033758 L31.25,7.39525318 L43.75,7.39525318 L43.75,9.86033758 L31.25,9.86033758 Z M40,12.325422 L40,14.7905064 L35,14.7905064 L35,12.325422 L40,12.325422 Z M27.5,19.7206752 C26.8096875,19.7206752 26.25,19.1688044 26.25,18.488133 C26.2489063,18.1559628 26.3873437,17.8382751 26.6325,17.6105629 C26.8604688,17.3805397 27.1739063,17.2523553 27.5,17.2555908 L47.5,17.2555908 C48.1903125,17.2555908 48.75,17.8074615 48.75,18.488133 C48.7510937,18.8203031 48.6126562,19.1379908 48.3675,19.365703 C48.1395312,19.5957262 47.8260937,19.7239106 47.5,19.7206752 L27.5,19.7206752 Z M52.5,45.6040613 L47.4875,45.6040613 C47.0940625,45.6040613 46.7235937,45.7867857 46.4875,46.0970782 C42.7734375,50.9913492 35.7385937,51.9901706 30.775,48.3279796 C29.9167188,47.6946069 29.1546875,46.9433725 28.5125,46.0970782 C28.2764063,45.7867857 27.9059375,45.6040613 27.5125,45.6040613 L22.5,45.6040613 L22.5,33.2786393 L27.5125,33.2786393 C27.9075,33.2766364 28.2782812,33.0906766 28.5125,32.7769946 C29.42125,31.5875914 30.5651562,30.5921595 31.875,29.8509395 C32.2629687,29.6301604 32.5014062,29.2215726 32.5,28.7798603 L32.5,22.1857595 L42.5,22.1857595 L42.5,28.7798603 C42.49875,29.2215726 42.7370312,29.6301604 43.125,29.8509395 C43.515625,30.0737215 43.89125,30.3206921 44.25,30.5904648 C45.0984375,31.2064278 45.8478125,31.9453368 46.4725,32.7819248 C46.7067187,33.0956068 47.0775,33.2815666 47.4725,33.2835695 L52.5,33.2835695 L52.5,45.6040613 Z M57.5,49.3016879 C57.5,49.9823593 56.9403125,50.5342301 56.25,50.5342301 C55.5596875,50.5342301 55,49.9823593 55,49.3016879 L55,29.5810127 C54.9989063,29.2488426 55.1373438,28.9311549 55.3825,28.7034427 C55.6104688,28.4734195 55.9239063,28.3452351 56.25,28.3484705 C56.9403125,28.3484705 57.5,28.9003413 57.5,29.5810127 L57.5,49.3016879 Z M72.5,45.6040613 L60,45.6040613 L60,33.2786393 L72.5,33.2786393 L72.5,45.6040613 Z" id="Shape" fill="#FFDA44"></path>
                    <path d="M60,30.8135549 L60,29.5810127 C60,27.5388444 58.3210938,25.8833861 56.25,25.8833861 C54.183125,25.8935546 52.5103125,27.5430042 52.5,29.5810127 L52.5,30.8135549 L48.09875,30.8135549 C47.4126563,29.9837459 46.6234375,29.2420636 45.75,28.6060719 C45.5,28.4211905 45.25,28.2486346 45,28.0896367 L45,22.1857595 L47.5,22.1857595 C49.566875,22.1755911 51.2396875,20.5261415 51.25,18.488133 C51.25,16.4459646 49.5710938,14.7905064 47.5,14.7905064 L42.5,14.7905064 L42.5,12.325422 L45,12.325422 C45.6903125,12.325422 46.25,11.7735512 46.25,11.0928798 L46.25,7.39525318 L53.75,7.39525318 C55.8210938,7.39525318 57.5,5.73979494 57.5,3.69762659 C57.5,1.65545824 55.8210938,0 53.75,0 L21.25,0 C19.1789063,0 17.5,1.65545824 17.5,3.69762659 C17.5,5.73979494 19.1789063,7.39525318 21.25,7.39525318 L28.75,7.39525318 L28.75,11.0928798 C28.75,11.7735512 29.3096875,12.325422 30,12.325422 L32.5,12.325422 L32.5,14.7905064 L27.5,14.7905064 C25.433125,14.8006748 23.7603125,16.4501244 23.75,18.488133 C23.75,20.5303013 25.4289063,22.1857595 27.5,22.1857595 L30,22.1857595 L30,28.0896367 C29.75,28.2486346 29.5,28.4187254 29.25875,28.6011417 C28.3815625,29.2377497 27.5895313,29.9811267 26.90125,30.8135549 L22.5,30.8135549 L22.5,29.5810127 C22.4896875,27.5430042 20.816875,25.8935546 18.75,25.8833861 C16.6789063,25.8833861 15,27.5388444 15,29.5810127 L15,30.8135549 L0,30.8135549 L0,48.0691457 L15,48.0691457 L15,49.3016879 C15,51.3438562 16.6789063,52.9993145 18.75,52.9993145 C20.8210938,52.9993145 22.5,51.3438562 22.5,49.3016879 L22.5,48.0691457 L26.90375,48.0691457 C31.7235938,53.8396001 40.375,54.6646331 46.2271875,49.9121044 C46.9089063,49.3585389 47.5348438,48.7413434 48.09625,48.0691457 L52.5,48.0691457 L52.5,49.3016879 C52.5,51.3438562 54.1789063,52.9993145 56.25,52.9993145 C58.3210938,52.9993145 60,51.3438562 60,49.3016879 L60,48.0691457 L75,48.0691457 L75,30.8135549 L60,30.8135549 Z M15,45.6040613 L2.5,45.6040613 L2.5,33.2786393 L15,33.2786393 L15,45.6040613 Z M20,49.3016879 C20,49.9823593 19.4403125,50.5342301 18.75,50.5342301 C18.0596875,50.5342301 17.5,49.9823593 17.5,49.3016879 L17.5,29.5810127 C17.5,28.9003413 18.0596875,28.3484705 18.75,28.3484705 C19.086875,28.3473921 19.4090625,28.4838961 19.64,28.7256284 C19.8732812,28.9504133 20.0032812,29.2594733 20,29.5810127 L20,49.3016879 Z M21.25,4.93016879 C20.5596875,4.93016879 20,4.37829802 20,3.69762659 C20,3.01695516 20.5596875,2.46508439 21.25,2.46508439 L53.75,2.46508439 C54.4403125,2.46508439 55,3.01695516 55,3.69762659 C55,4.37829802 54.4403125,4.93016879 53.75,4.93016879 L21.25,4.93016879 Z M31.25,9.86033758 L31.25,7.39525318 L43.75,7.39525318 L43.75,9.86033758 L31.25,9.86033758 Z M40,12.325422 L40,14.7905064 L35,14.7905064 L35,12.325422 L40,12.325422 Z M27.5,19.7206752 C26.8096875,19.7206752 26.25,19.1688044 26.25,18.488133 C26.2489063,18.1559628 26.3873437,17.8382751 26.6325,17.6105629 C26.8604688,17.3805397 27.1739063,17.2523553 27.5,17.2555908 L47.5,17.2555908 C48.1903125,17.2555908 48.75,17.8074615 48.75,18.488133 C48.7510937,18.8203031 48.6126562,19.1379908 48.3675,19.365703 C48.1395312,19.5957262 47.8260937,19.7239106 47.5,19.7206752 L27.5,19.7206752 Z M52.5,45.6040613 L47.4875,45.6040613 C47.0940625,45.6040613 46.7235937,45.7867857 46.4875,46.0970782 C42.7734375,50.9913492 35.7385937,51.9901706 30.775,48.3279796 C29.9167188,47.6946069 29.1546875,46.9433725 28.5125,46.0970782 C28.2764063,45.7867857 27.9059375,45.6040613 27.5125,45.6040613 L22.5,45.6040613 L22.5,33.2786393 L27.5125,33.2786393 C27.9075,33.2766364 28.2782812,33.0906766 28.5125,32.7769946 C29.42125,31.5875914 30.5651562,30.5921595 31.875,29.8509395 C32.2629687,29.6301604 32.5014062,29.2215726 32.5,28.7798603 L32.5,22.1857595 L42.5,22.1857595 L42.5,28.7798603 C42.49875,29.2215726 42.7370312,29.6301604 43.125,29.8509395 C43.515625,30.0737215 43.89125,30.3206921 44.25,30.5904648 C45.0984375,31.2064278 45.8478125,31.9453368 46.4725,32.7819248 C46.7067187,33.0956068 47.0775,33.2815666 47.4725,33.2835695 L52.5,33.2835695 L52.5,45.6040613 Z M57.5,49.3016879 C57.5,49.9823593 56.9403125,50.5342301 56.25,50.5342301 C55.5596875,50.5342301 55,49.9823593 55,49.3016879 L55,29.5810127 C54.9989063,29.2488426 55.1373438,28.9311549 55.3825,28.7034427 C55.6104688,28.4734195 55.9239063,28.3452351 56.25,28.3484705 C56.9403125,28.3484705 57.5,28.9003413 57.5,29.5810127 L57.5,49.3016879 Z M72.5,45.6040613 L60,45.6040613 L60,33.2786393 L72.5,33.2786393 L72.5,45.6040613 Z" id="Shape-Copy-9" fill="#FFFFFF"></path>
                </g>
            </g>
        </g>
    </g>
</svg>