<?xml version="1.0" encoding="UTF-8"?>
<svg width="120px" height="120px" viewBox="0 0 120 120" version="1.1" xmlns="http://www.w3.org/2000/svg" xmlns:xlink="http://www.w3.org/1999/xlink">
    <!-- Generator: Sketch 52.3 (67297) - http://www.bohemiancoding.com/sketch -->
    <title>Group Copy 3</title>
    <desc>Created with Sketch.</desc>
    <defs>
        <polygon id="path-1" points="0 0 112 0 112 112 0 112"></polygon>
        <filter x="-5.4%" y="-5.4%" width="110.7%" height="110.7%" filterUnits="objectBoundingBox" id="filter-2">
            <feOffset dx="0" dy="0" in="SourceAlpha" result="shadowOffsetOuter1"></feOffset>
            <feGaussianBlur stdDeviation="2" in="shadowOffsetOuter1" result="shadowBlurOuter1"></feGaussianBlur>
            <feColorMatrix values="0 0 0 0 0   0 0 0 0 0   0 0 0 0 0  0 0 0 0.5 0" type="matrix" in="shadowBlurOuter1"></feColorMatrix>
        </filter>
    </defs>
    <g id="Point-de-Vue" stroke="none" stroke-width="1" fill="none" fill-rule="evenodd">
        <g id="Point-de-vue" transform="translate(-1075.000000, -393.000000)">
            <g id="Group-Copy-3" transform="translate(1079.000000, 397.000000)">
                <g id="Rectangle-244-Copy-50">
                    <use fill="black" fill-opacity="1" filter="url(#filter-2)" xlink:href="#path-1"></use>
                    <use fill="#7CC7FF" fill-rule="evenodd" xlink:href="#path-1"></use>
                </g>
                <path d="M60.4287954,26.3074135 C60.1042244,25.788749 60,25.4382644 60,25.4382644 L60.1546709,25.2909427 C60.1546709,25.2909427 60.4554464,25.4203625 60.9811689,25.6433981 C61.2292769,25.7458828 61.5330665,25.8716893 61.8812743,26.0135912 C62.2242472,26.1421898 62.5975197,26.2921393 62.9976018,26.3926532 C63.1946287,26.4558849 63.3953043,26.5187882 63.6026427,26.5429312 C63.7070257,26.5572199 63.806491,26.5869471 63.9099223,26.6066556 C64.0124017,26.6138821 64.1151983,26.6173311 64.2173605,26.6307987 C64.6306094,26.6882821 65.0105447,26.6418026 65.427125,26.619302 C65.6203447,26.5457232 65.835139,26.5250292 66.0453328,26.4314134 C66.2379179,26.3136545 66.4896746,26.2453314 66.6684583,26.0943964 C66.7631645,26.0270587 66.8615194,25.956929 66.9670129,25.8876204 C67.0764723,25.8238959 67.1929117,25.7734748 67.3091925,25.6432338 L68.0452675,25.0033614 C68.0522475,24.9935071 68.0022769,25.0688925 68.0262311,25.0337455 L68.0313074,25.0283257 L68.0438398,25.016829 L68.0681112,24.9953138 L68.1164954,24.9504767 L68.2135812,24.8606384 L68.4066422,24.6853961 L68.771031,24.3276851 C69.0001026,24.0832985 69.2883458,23.8927821 69.519321,23.6572644 C69.7468063,23.4135348 70.0524995,23.2644064 70.2956897,23.0280675 C70.5558542,22.8158716 70.859961,22.656889 71.1532805,22.4510984 C71.7695847,22.1508708 72.4897959,21.9279994 73.1346547,22.0216152 C73.2963056,22.0395172 73.4533561,22.0656311 73.6078684,22.095194 C73.7573043,22.1382244 73.8976979,22.1914376 74.0366638,22.2453078 C74.3212583,22.3425369 74.5663522,22.4816467 74.7973274,22.6191141 C75.258802,22.8951987 75.6255704,23.2149707 75.9187313,23.5242314 C76.2101472,23.8343133 76.4292246,24.1363475 76.5869097,24.3996215 C76.7522093,24.6573114 76.8477086,24.8849456 76.9149707,25.0404793 C76.9706522,25.2004474 77,25.2866725 77,25.2866725 L76.8454877,25.4358009 C76.8454877,25.4358009 76.5140954,25.3198486 76.0051884,25.0996051 C75.757239,24.9972846 75.4564635,24.8688503 75.1112697,24.7249775 C74.7779737,24.5829114 74.411364,24.4265566 74.0241315,24.2908957 C73.8313877,24.2171527 73.6319812,24.1407819 73.4305124,24.0903608 C73.3281916,24.0644111 73.2276159,24.0228588 73.1248192,23.9924747 C73.0223398,23.9709595 72.9201777,23.9438602 72.817381,23.9088775 C72.4015938,23.768618 71.9720053,23.6303293 71.4400959,23.5728459 C71.1957952,23.6061863 70.904062,23.5953466 70.6499258,23.7050577 C70.4054664,23.8334921 70.1246792,23.9323635 69.9284455,24.1606548 C69.7306253,24.3807341 69.5048851,24.5732213 69.3662365,24.8535761 L69.1646091,25.2713983 L69.0719651,25.4817876 L69.0269123,25.5860789 L69.0047031,25.6399491 L68.9935985,25.6640921 L68.9883635,25.6767384 L68.9848735,25.6847861 C69.0048618,25.6542378 68.9537807,25.7334006 68.9572707,25.728802 L68.56052,26.6347404 C68.4302791,26.9269203 68.1315659,27.2567108 67.8877411,27.5469199 C67.6402676,27.8632428 67.3088753,28.0448904 67.0138107,28.2928902 C66.7049448,28.5175682 66.327865,28.646988 65.9826713,28.8095839 C65.248024,29.0268711 64.480539,29.0657956 63.8347284,28.8869401 C63.5049224,28.8115547 63.2014501,28.712519 62.9339884,28.5688105 C62.6539944,28.446453 62.4127077,28.2938756 62.1852225,28.1463896 C61.7331075,27.836472 61.3747469,27.5083239 61.0915801,27.1865811 C60.8022265,26.8753495 60.5879081,26.5680596 60.4287954,26.3074135 Z M90,70.6255508 L90,87 L20,87 L20,70.6255508 L24.7681934,70.6255508 L24.7681934,52.2316823 L38.2050416,42.9811274 L38.2050416,52.2316823 L51.6398331,42.9811274 L51.6398331,52.2316823 L65.0774158,42.9811274 L65.0774158,61.1635407 L69.713547,61.1635407 L72.2313952,29 L79.9161207,29 L82.1198989,61.1635407 L87.2901548,61.1635407 L87.2901548,70.6268481 L89.9998531,70.6268481 L89.9998531,70.6255508 L90,70.6255508 Z M42,64 L30,64 L30,74 L42,74 L42,64 Z M62,64 L50,64 L50,74 L62,74 L62,64 Z M80,64 L68,64 L68,74 L80,74 L80,64 Z" id="Shape-Copy-2" fill="#EFF2F5" fill-rule="nonzero"></path>
            </g>
        </g>
    </g>
</svg>